<?xml version="1.0" encoding="UTF-8"?>
<svg id="Capa_1" xmlns="http://www.w3.org/2000/svg" version="1.1" viewBox="0 0 95.23 32">
  <!-- Generator: Adobe Illustrator 29.5.0, SVG Export Plug-In . SVG Version: 2.1.0 Build 137)  -->
  <defs>
    <style>
      .st0 {
        fill: #fff;
      }

      .st1 {
        stroke: #fff;
        stroke-miterlimit: 10;
      }
    </style>
  </defs>
  <g>
    <path class="st0" d="M45.86,4.05h11.88s.04-.06.04-.09c.03-.46.28-.69.75-.69,1.77,0,3.54.02,5.3,0,.5,0,1-.13,1.48-.28.44-.14.82.03,1.23.1.46.08.92.18,1.39.18,1.75.02,3.51,0,5.26,0,.54,0,.56-.06.55.53,0,.07.02.15.03.24h11.92v-.73c0-.19.07-.27.27-.27h4.08c.29,0,.29.16.29.37v9.37c0,.37-.12.47-.48.47h-48.18c-.37,0-.47-.11-.47-.47,0-3.1,0-6.2,0-9.3,0-.36.1-.45.45-.44,1.26.02,2.52.02,3.78,0,.33,0,.47.09.43.43-.02.18,0,.37,0,.58h0ZM63.55,12.43h4.45c.03-.63.07-1.24.08-1.85.01-1.18,0-2.36,0-3.54,0-.25.03-.5.04-.75h-4.72c.02.26.05.5.06.74v3.96c0,.47.06.94.09,1.44ZM73.76,6.26h11.4c.1,0,.21.02.3,0,.09-.03.21-.12.21-.19.02-.54,0-1.08,0-1.63h-11.93v1.83h.02ZM45.87,6.23h11.89v-1.8h-11.89s0,1.8,0,1.8ZM41.53,12.91h3.29c-.09-.63.42-.39.69-.49,0-.07.03-.11.03-.16v-7.57c0-.25-.12-.29-.33-.29h-3.7v8.51h.02ZM86.73,12.92c.11,0,.22.02.33.02.85,0,1.7-.01,2.56,0,.33,0,.4-.11.4-.42-.01-2.58,0-5.16,0-7.73,0-.12-.02-.24-.02-.36h-3.98v7.98c.43.07.67.24.72.51h-.01ZM62.02,6.3h-2.16v6.13h2.03c.03-.63.07-1.23.08-1.84,0-1.21,0-2.41,0-3.62,0-.22.03-.45.05-.67ZM69.69,12.45c.65,0,1.23.01,1.81-.01.08,0,.21-.2.21-.3-.03-1.93-.08-3.86-.12-5.8,0-.02-.03-.04-.05-.06h-2.02c.02.29.05.56.05.84v4.04c0,.42.07.84.11,1.29h.01ZM68.72,3.6s-.02.04-.03.06c.1.03.21.07.31.1.75.2,1.49.4,2.24.6.85.23.84.23.82,1.13,0,.28-.1.38-.38.38h-11.86c-.18,0-.42,0-.36-.25.07-.36-.25-.81.21-1.09h.04c.39-.1.78-.21,1.18-.31.65-.18,1.31-.36,1.96-.54,0,0,0-.03,0-.04h-4.71v2.64h1.35s.13-.02.13-.05c.09-.35.38-.24.59-.24h11.06c.23,0,.56-.16.65.25,0,.02.09.03.14.03h1.34v-2.66h-4.67ZM45.87,7.34h13.71v-.76h-13.71v.76ZM71.95,7.38h13.13c.43,0,.63-.22.6-.65-.05-.65-.03-.09-.05-.14h-13.68v.79ZM54.29,7.71v4.72h1.98v-4.72s-1.98,0-1.98,0ZM75.25,12.42h1.98v-4.72h-1.98v4.72ZM57.08,7.71v4.71h1.97v-4.71h-1.97ZM79.98,12.43v-4.71h-1.95v4.71h1.95ZM74.47,12.43v-4.72h-1.96v4.72h1.96ZM53.5,12.43v-4.72h-1.95v4.72h1.95ZM80.77,7.7v4.72h1.93v-4.72s-1.93,0-1.93,0ZM71.74,4.83h-11.44c-.59,0-.64.07-.47.68h11.91s0-.68,0-.68ZM48.81,12.42h1.95v-4.71h-1.95v4.71ZM83.51,7.71v4.71h1.71v-4.71h-1.71ZM46.32,12.42h1.72v-4.71h-1.72v4.71ZM45.19,12.81v.09h16.62v-.09s-16.62,0-16.62,0ZM86.35,12.9v-.09h-16.6v.09h16.6ZM45.53,4.05v-.67h-3.99v.67h3.99ZM86.01,4.04h3.98v-.67h-3.98v.67ZM61.18,4.44s.02.03.02.04h4c-.28-.43-.15-.77.17-1.17-1.46.39-2.83.76-4.19,1.13ZM70.32,4.5s.01-.04.02-.06c-1.36-.37-2.73-.73-4.09-1.1.31.38.29.75.11,1.16h3.96ZM67.92,12.89v-.09h-4.3v.09h4.3ZM68.42,11.93h.07v-5.3h-.07v5.3ZM62.3,11.93h.07v-5.31h-.07v5.31ZM69.14,11.92h.07v-5.3h-.07v5.3ZM63.25,12.94v-.66c-.31,0-.6-.02-.88.01-.09.01-.2.18-.22.29-.03.14-.07.35.19.36h.91ZM68.29,12.29v.62h1.07v-.62h-1.07ZM53.94,7.91h-.06v4.49h.06v-4.49ZM74.81,12.41h.07v-4.51h-.07v4.51ZM85.56,12.4c.2-.47.15-4.31,0-4.51v4.51ZM83.06,12.4h.07v-4.5h-.07v4.5ZM72.06,12.4h.07v-4.49h-.07v4.49ZM51.11,12.4h.07v-4.5h-.07v4.49h0ZM77.6,12.39h.06v-4.48h-.06v4.48ZM80.42,7.91h-.06v4.49h.06v-4.49ZM59.39,12.4h.07v-4.49h-.07v4.49ZM45.89,12.4h.07v-4.5h-.07v4.5ZM66.24,4.1v-.17c-.15-.11-.29-.3-.46-.33-.26-.05-.46.16-.42.41.03.16.25.37.4.39.14.02.31-.19.47-.3h0ZM63.11,6.62h-.06v5.3h.06v-5.3ZM56.64,12.4h.06v-4.51h-.06v4.51ZM48.46,7.91h-.06v4.49h.06v-4.49Z"/>
    <path class="st0" d="M41.14,13.75c.17-.07.26-.12.36-.14.1-.02.2,0,.3,0h47.91c.2,0,.39.05.59.07v.11c-.06.03-.12.1-.18.1h-48.71c-.06,0-.12-.06-.27-.14Z"/>
    <path class="st0" d="M85.56,26.43v-1.73c-.18-.01-.34-.02-.53-.04v-.62h1.86v.61c-.17.02-.33.03-.52.05v4.1c.18.01.34.03.52.04v.62h-1.86v-.62c.17-.01.34-.02.55-.03,0-.52,0-1.02-.01-1.53,0-.07-.15-.2-.24-.2-.71-.02-1.42-.02-2.14,0-.08,0-.22.13-.23.21-.02.49-.01.98-.01,1.5.21.02.38.03.57.05v.61h-1.89v-.61c.17-.01.34-.03.54-.05v-4.09c-.17-.02-.33-.03-.53-.05v-.61h1.89v.61c-.19.02-.36.03-.57.05v1.53c0,.07.12.18.18.18.8.01,1.59,0,2.41,0v.02Z"/>
    <path class="st0" d="M75.23,28.82v.62h-1.46c.03-.25.06-.48.09-.72h.1c-.09-.15-.18-.3-.27-.45-.51-.84-.62-.89-1.67-.71-.01.07-.04.14-.04.21v1.01c.17.02.32.04.48.06v.6h-1.79v-.6c.18-.02.35-.03.54-.05v-4.09c-.18-.01-.34-.03-.53-.04v-.64h.82c.53,0,1.07.04,1.6-.01.64-.06,1.15.09,1.49.65.12.19.2.41.26.63.04.13-.01.28,0,.42.1.64-.08,1.17-.61,1.56-.22.16-.22.33-.06.55.14.18.25.38.36.59.14.26.29.52.67.43l.02-.02ZM72,26.84c.47,0,.88-.04,1.28.01.44.05.75-.2.84-.5.11-.37.04-.82-.05-1.21-.04-.17-.34-.37-.54-.4-.42-.06-.86-.03-1.29,0-.08,0-.23.13-.23.21-.02.62-.01,1.24-.01,1.9h0Z"/>
    <path class="st0" d="M41.23,29.47v-.63c.18-.02.35-.03.55-.05v-4.09c-.18-.02-.35-.03-.54-.05v-.6c.09,0,.19-.03.28-.03.99,0,1.98-.01,2.97,0,.17,0,.35.1.49.21.56.4.74.95.68,1.64-.06.72-.03,1.44,0,2.17,0,.37-.12.63-.36.91-.34.4-.71.56-1.24.53-.92-.04-1.85-.01-2.82-.01h0ZM42.56,28.76c.63,0,1.21.04,1.79-.02.3-.03.54-.28.54-.63v-2.74c0-.32-.33-.66-.65-.66h-1.41c-.18,0-.28.05-.28.26v3.79h0Z"/>
    <path class="st0" d="M72.45,17.92c-.17-.02-.31-.04-.49-.06v-.55c.48,0,.95-.01,1.43.01.09,0,.19.15.24.25.61,1.13,1.21,2.26,1.81,3.39.07.13.14.26.28.38v-3.42c-.14-.02-.29-.03-.47-.06v-.54h1.69v.53c-.15.02-.3.04-.49.06,0,.12-.02.26-.02.39v3.58c0,.26-.08.33-.34.36-.51.05-.79-.11-1.02-.59-.51-1.06-1.09-2.09-1.65-3.13-.06-.11-.12-.21-.24-.41v3.51c.14.02.29.03.47.05v.53h-1.69v-.53c.16-.02.31-.04.48-.06v-3.7h0Z"/>
    <path class="st0" d="M68.31,24.05c-.08.25.21.63-.35.65.08.25.15.47.23.69.35,1.01.7,2.01,1.03,3.02.09.28.21.48.57.4v.63h-1.7v-.62c.16-.01.31-.02.51-.03-.11-.32-.19-.62-.32-.9-.04-.08-.19-.15-.3-.15-.52-.02-1.04,0-1.56-.01-.23,0-.35.08-.41.29-.07.24-.16.48-.25.75.18.02.34.03.52.05v.61h-1.7v-.63c.37.08.47-.15.57-.44.4-1.21.83-2.42,1.25-3.66-.48-.05-.31-.38-.32-.68h2.21l.02.03ZM67.19,24.68c-.3.86-.56,1.62-.83,2.39h1.66c-.28-.79-.54-1.54-.84-2.39h0Z"/>
    <path class="st0" d="M51,29.46h-3.94v-.62c.17-.01.34-.03.54-.04v-4.1c-.17-.02-.34-.03-.54-.05v-.61h3.97c0,.48.03.98-.03,1.46,0,.09-.35.14-.62.23v-1.03h-1.99v1.71h1.92v.64h-1.91v1.75h1.95v-.92h.65s0,1.58,0,1.58Z"/>
    <path class="st0" d="M79.78,27.54h.57c.32.87-.21,1.37-.76,1.86-.06.06-.19.07-.28.07-.33,0-.67-.04-.99.01-.66.1-1.14-.14-1.53-.66-.15-.2-.25-.38-.24-.64.01-.91.02-1.83,0-2.74,0-.34.11-.58.32-.84.36-.45.76-.66,1.34-.58.26.04.54.03.8,0,.39-.05.63.13.92.38.51.44.56.95.45,1.56h-.61c0-.38.06-.79-.34-1.02-.17-.09-.35-.19-.53-.22-.25-.04-.51-.01-.76,0-.54,0-.83.3-.83.84v2.48c0,.43.3.73.73.74h.61c.81,0,1.08-.26,1.11-1.06,0-.05.01-.1.02-.17h0Z"/>
    <path class="st0" d="M62.85,22.21v-.53c.15-.02.3-.03.48-.05v-3.72c-.16-.01-.3-.03-.47-.04v-.53h3.57v1.4h-.54v-.81h-1.84c0,.46-.01.9.01,1.34,0,.07.18.19.28.19.49.02.98,0,1.49,0v.59c-.48,0-.96.01-1.44,0-.26,0-.37.07-.36.34.02.4,0,.81,0,1.24h1.81c.01-.28.02-.55.04-.85h.55v1.43h-3.58Z"/>
    <path class="st0" d="M63.29,27.53h.54c.23.77-.1,1.55-.79,1.9-.08.04-.2.04-.3.04-.5,0-.99-.01-1.49,0-.26.01-.41-.1-.59-.26-.49-.41-.67-.89-.62-1.53.06-.74.03-1.5,0-2.25,0-.37.11-.63.35-.91.35-.4.71-.61,1.24-.53.15.02.31.03.46,0,.76-.17,1.3.19,1.65.78.18.31.15.74.23,1.15h-.69c.03-.41,0-.81-.4-1.05-.13-.08-.28-.16-.43-.17-.29-.03-.58-.01-.88,0-.47,0-.76.31-.77.78v2.51c0,.46.29.75.75.75.13,0,.26-.01.38,0,.87.1,1.37-.21,1.36-1.23v.02Z"/>
    <path class="st0" d="M89.04,17.32c-.11.26-.19.44-.27.63-.04,0-.09-.02-.13-.02.15.44.3.88.45,1.32.23.66.46,1.31.68,1.98.08.26.18.47.53.42v.53h-1.53v-.51c.14-.02.27-.04.45-.07-.09-.27-.16-.52-.26-.76-.04-.08-.16-.17-.24-.17-.52-.02-1.04-.01-1.56,0-.08,0-.19.08-.22.15-.1.24-.18.49-.27.77.17.03.31.05.46.08v.51h-1.53v-.51c.36.02.45-.24.54-.52.36-1.07.73-2.13,1.11-3.23-.38-.05-.34-.3-.28-.59h2.08-.01ZM87.98,17.99h-.09c-.23.67-.46,1.35-.71,2.05h1.51c-.24-.71-.48-1.38-.71-2.06h0Z"/>
    <path class="st0" d="M49.68,19.77c0,.38-.02.76,0,1.14.03.35-.11.58-.33.84-.31.37-.65.53-1.12.47-.24-.03-.49-.04-.72,0-.56.09-.97-.13-1.31-.56-.16-.2-.25-.38-.25-.64.02-.86,0-1.73,0-2.59,0-.47.65-1.12,1.12-1.12.34,0,.7.05,1.03-.01.68-.12,1.1.23,1.46.72.07.09.1.23.1.35,0,.47,0,.94,0,1.41h.02ZM49.01,19.75v-1.1c0-.48-.26-.73-.75-.73h-.91c-.41,0-.7.3-.71.71v2.21c0,.48.26.75.74.75h.88c.51,0,.75-.25.76-.77v-1.07h-.01Z"/>
    <path class="st0" d="M41.23,22.18v-.47c.35-.09.52-.33.52-.71v-3.08c-.19-.02-.34-.04-.51-.06v-.53c.11,0,.23-.02.36-.02.65,0,1.3.06,1.94-.02.69-.09,1.05.31,1.41.75.06.08.08.21.08.32,0,.33,0,.66,0,.99.02.26-.09.44-.24.64-.35.46-.78.63-1.34.57-.32-.04-.65,0-1,0v1.07c.19.02.36.03.56.05v.51h-1.78ZM42.43,19.91h1.01c.85,0,1.33-.78.92-1.53-.1-.19-.31-.41-.49-.44-.47-.06-.95-.02-1.44-.02,0,0,0,1.99,0,1.99Z"/>
    <path class="st0" d="M52.43,24.65v-.6h1.97v.61c-.2.01-.39.02-.62.04v4.11h1.84v-.93h.59v1.58h-3.77v-.6c.16-.01.32-.03.52-.04v-4.1c-.17-.02-.34-.03-.52-.05v-.02Z"/>
    <path class="st0" d="M70.94,19.03h-.54c-.05-.31.07-.7-.3-.9-.17-.09-.35-.19-.53-.21-.25-.04-.51-.01-.76,0-.35,0-.65.29-.66.64v2.4c0,.34.31.63.66.63.13,0,.26-.01.38,0,.77.1,1.22-.22,1.2-1.11h.51c.17.71-.06,1.29-.67,1.67-.08.05-.19.06-.29.06-.29,0-.59-.03-.88.01-.59.08-1.04-.1-1.36-.6-.11-.17-.22-.37-.23-.56-.02-.89-.01-1.78,0-2.66,0-.42.67-1.09,1.08-1.09.38,0,.76.02,1.14,0,.36-.03.59.13.86.36.47.4.43.87.39,1.39v-.03Z"/>
    <path class="st0" d="M84.58,19.03h-.49c-.06-.26-.07-.52-.18-.73-.18-.31-.47-.47-.86-.4-.37.06-.81-.16-1.08.26-.08.12-.15.26-.16.4-.01.79-.01,1.57,0,2.36,0,.37.3.65.67.65.11,0,.23-.01.34,0,.79.09,1.24-.19,1.23-1.11.08,0,.17-.03.25-.03.09,0,.18,0,.26.01.17.74-.09,1.38-.71,1.7-.08.04-.2.04-.3.04-.28,0-.56-.03-.84,0-.59.08-1.05-.09-1.36-.6-.1-.17-.22-.37-.22-.56-.02-.89-.01-1.77,0-2.66,0-.45.65-1.09,1.1-1.1.37,0,.74.02,1.1,0,.36-.03.59.13.86.36.46.39.47.85.38,1.39v.02Z"/>
    <path class="st0" d="M58.8,22.27v-.53c.24-.02.46-.03.71-.05v-3.68s-.05-.04-.07-.04c-.29,0-.66-.1-.85.03-.16.12-.13.51-.19.8h-.45v-1.4h3.89v1.38h-.54v-.81h-1.09v1.3c0,.67.02,1.35,0,2.02,0,.34.1.47.43.42.1-.01.2,0,.32.02v.53h-2.16Z"/>
    <path class="st0" d="M89.67,28.8c.22.01.41.02.62.03v.61h-2.04v-.61c.2-.01.39-.03.62-.04v-4.11c-.21-.01-.41-.02-.63-.04v-.61h2.05v.6c-.21.01-.41.03-.63.04v4.13Z"/>
    <path class="st0" d="M51.11,17.88c-.17-.02-.32-.03-.48-.05v-.51h1.77v.51c-.18.02-.36.03-.56.05v3.71h1.65v-.82h.56v1.27s-.11.15-.17.15h-3.25v-.54c.16-.02.31-.04.49-.06v-3.72h-.01Z"/>
    <path class="st0" d="M78.65,17.88c-.19-.02-.35-.03-.55-.05v-.51h1.83v.5c-.17.02-.35.03-.56.05v3.71c.19.02.37.04.57.07v.5h-1.85v-.5c.18-.02.35-.04.56-.06v-3.72h0Z"/>
    <path class="st0" d="M55.63,21.59v-3.7c-.19-.02-.37-.04-.57-.06v-.5h1.85v.5c-.19.02-.36.03-.56.05v3.71c.18.02.36.04.56.07v.52h-1.85v-.52c.19-.02.37-.05.57-.07Z"/>
    <path class="st0" d="M65.45,15.97c.08.23.14.4.19.57-.44.34-.93.29-1.41.28-.06,0-.16-.08-.18-.15-.01-.05.06-.16.12-.19.41-.17.82-.33,1.28-.51Z"/>
    <path class="st0" d="M44.83,9.23v2.74c0,.3-.07.44-.4.43-.61-.02-1.22-.01-1.83,0-.28,0-.38-.09-.38-.38,0-1.89,0-3.78,0-5.67,0-.31.12-.39.41-.39.61.02,1.22.02,1.83,0,.29,0,.38.1.38.38v2.89h0ZM44.48,12.05v-5.77c-.53,0-1.04.02-1.54,0-.31-.01-.42.08-.41.4,0,1.67,0,3.35,0,5.02,0,.11,0,.22.02.36h1.93Z"/>
    <path class="st0" d="M89.29,9.19c0,.94-.01,1.88,0,2.82,0,.31-.11.4-.4.39-.61-.01-1.22-.01-1.83,0-.28,0-.37-.1-.37-.38.01-1.89.01-3.78,0-5.67,0-.31.11-.4.4-.39.61.02,1.22.02,1.83,0,.29,0,.37.1.37.38-.01.95,0,1.9,0,2.86h0ZM88.97,6.27c-.53,0-1.05.02-1.57,0-.31-.01-.41.09-.41.41.01,1.67,0,3.35,0,5.02,0,.11.01.22.02.35h1.95v-5.77h.01Z"/>
  </g>
  <line class="st1" x1="37.01" y1="26.51" x2="37.01" y2="5.93"/>
  <g>
    <path class="st0" d="M16.32,9.24c.02-.1-.08-.13-.12-.2-.35-.54-.35-1.21.03-1.73.15-.2.34-.32.54-.46l-1.1-1.23c-.05-.09.21-.27.27-.27h.04c.12.15.28.43.47.45h4.51l.41-.44c.08-.07.32.17.33.23l-1.14,1.29c.78.48,1.03,1.38.51,2.17-.05.07-.14.1-.12.2h3.57l.04.04v6.84c0,.55-.55,1.64-.91,2.06-1.42,1.65-3.68,1.94-5.75,1.79-2.67-.19-4.97-1.22-5.26-4.19v-6.45l.04-.1h3.64ZM20.83,6.07h-4.32l2.17,2.44,2.14-2.44h.01ZM17.58,7.75l-.61-.67c-.75.3-1,1.22-.49,1.86.42.51,1.21.58,1.71.14.09-.08.29-.29.24-.41l-.48-.53c-.07-.03-.04.16-.05.2-.1.45-.87.43-.92-.08-.04-.35.25-.58.59-.52h.01ZM19.43,8.15s-.05,0-.07.03c-.04.03-.25.27-.31.34-.18.21-.29.23-.08.48.37.44,1.06.51,1.53.21.81-.51.72-1.67-.13-2.08l-.57.57c-.01.07.03.04.07.04.24.03.48.13.52.41.08.66-.98.72-.95.01h-.01ZM16.62,9.5v2.1l.06.03c1.02-.53,2.18-.6,3.27-.25.18.06.36.14.54.2v-2.05c-.45.16-.99.19-1.39-.11-.07,0-.2.92-.45.95-.14.01-.27-.36-.31-.48-.03-.08-.1-.47-.17-.47-.45.29-1.03.3-1.5.04l-.06.03h0ZM16.3,9.52h-3.34l-.04.1c.08,1.98-.11,4.05,0,6.03.15,2.67,2.32,3.9,4.78,4.02l.24-.03c-1.9-.25-3.48-1.96-3.59-3.88-.08-1.43.45-2.7,1.54-3.62.08-.07.46-.3.47-.37-.03-.59-.04-1.2-.02-1.79,0-.1.09-.42-.04-.46ZM24.23,9.52h-3.42l-.04.04v2.16c0,.06.37.28.45.34,2.86,2.29,1.83,6.7-1.67,7.54l-.79.12c.22.04.48.02.71,0,2.55-.18,4.7-1.42,4.84-4.19.09-1.93-.07-3.93,0-5.86.01-.05-.03-.14-.07-.15h0ZM18.56,11.34c-.3-.05-.42.14-.05.11l.03-.02v-.09h.02ZM18.69,11.34c-.07.02-.06.09.02.11.05,0,.35.01.35-.04-.07-.08-.29-.09-.37-.07ZM17.94,11.48c.35.04.33-.18,0-.08v.08ZM19.43,11.51c.06-.13-.25-.16-.28-.1-.05.12.22.1.28.1ZM17.86,11.51l-.07-.1c-.05.06-.24.02-.24.12s.26,0,.31-.01h0ZM19.73,11.48c-.31-.1-.28.12,0,.11v-.11ZM17.47,11.51s-.4.07-.34.2l.33-.09v-.11h.01ZM20.13,11.62c-.07.01-.24-.14-.28-.04-.02.06,0,.06.04.08.08.04.25.1.24-.03h0ZM18.31,11.73c.29.14.37-.19.04-.13l-.04.13ZM19,11.62c-.43-.15-.52.18-.04.13l.04-.04v-.09ZM18.19,11.62h-.17l-.03.17h.17l.03-.17ZM19.34,11.81l.03-.09c-.01-.06-.19-.14-.23-.08v.14l.21.03h-.01ZM16.77,11.84c.33.02.4-.29.02-.09l-.02.09ZM17.88,11.68l-.22.04c-.12.19.23.16.25.05l-.03-.09ZM20.23,11.68l-.04.07s.2.12.23.13c.09.03.1-.06.03-.11-.03-.02-.18-.1-.22-.09ZM19.5,11.71c-.15.05.04.3.18.09.01-.06-.12-.11-.18-.09ZM17.55,11.76c-.06,0-.34.05-.33.12.03.19.41.07.33-.12ZM19.99,11.98c.08-.19-.24-.29-.25-.06l.25.06ZM16.93,12.12s.17-.05.21-.08c.03-.2-.13-.12-.23-.06l.02.14ZM20.15,11.9c-.2.04.06.25.16.27l.13-.09s-.27-.18-.29-.18ZM16.31,12.04c-.06,0-.2.14-.09.19l.15-.13s-.03-.07-.07-.07h.01ZM18.08,12.04c-.37,0-.81.18-1.14.36-.19.11-.39.19-.3.45,0,0,1.44-.81,1.44-.81ZM20.49,12.83c0-.08.02-.18,0-.26-.05-.18-1.11-.58-1.34-.52,0,0,1.34.78,1.34.78ZM16.82,12.07c-.14-.03-.29.14-.1.19.12,0,.14-.09.1-.19ZM21.13,12.18l-.19-.09c-.05.1.16.26.2.15v-.07h-.01ZM16.05,12.24c-.06.01-.37.28-.23.3l.29-.24-.07-.07h0ZM18.75,12.27c-.19-.15-.48.15-.22.26.18.08.32-.09.22-.26ZM20.94,12.51s.06-.09.05-.11c-.31-.26-.22.21-.05.11ZM21.21,12.32s-.04.03-.01.07c.02.03.16.15.18.15.11,0-.02-.26-.17-.22ZM16.28,12.6c.03-.06-.03-.17-.09-.16-.07.07-.36.26-.14.31.07.02.14-.13.23-.15ZM21.22,12.74c.09-.1-.12-.27-.19-.22-.09.1.12.27.19.22ZM15.76,12.57s-.32.17-.18.25c.06-.08.19-.14.18-.25ZM21.75,12.88c.04-.09-.23-.36-.28-.31-.06.06.23.36.28.31ZM15.95,12.77l-.11-.02c-.29.3.1.32.11.02ZM21.41,12.78s-.07-.04-.1-.02c-.17.08.15.32.18.32.02,0,.07-.05.1-.07,0-.02-.16-.21-.18-.23ZM21.3,13.3c0-.07-.05-.11-.08-.15s-.41-.42-.45-.38c-.08.33.32.38.53.53ZM15.4,12.86c0,.05-.07.09-.08.13-.06.21.33-.06.15-.13h-.07ZM16.37,12.85s-.06,0-.1.03-.4.4-.38.42c.19-.08.52-.19.48-.45ZM17.75,12.91h-.55s-.06.03-.07.05l-.28.51c.13-.08.24-.18.37-.26.17-.11.37-.18.53-.3ZM20.06,12.91h-.63l.46.22.48.34s0-.07-.02-.09c-.04-.06-.26-.46-.29-.47ZM21.9,13.19s.11,0,.11-.06c-.04-.04-.12-.2-.18-.19-.13.03.06.2.07.25ZM18.64,13.11c.08,0,.17.03.22-.04-.07-.1-.24-.11-.22.04ZM15.59,13.03s-.07.12-.06.14l.09.07.13-.15s-.12-.09-.16-.07h0ZM21.78,13.33c.05-.07-.09-.24-.17-.22l-.06.05c-.01.1.17.26.24.17h-.01ZM15.31,13.13c-.09-.08-.23.16-.2.25.07.07.22-.23.2-.25ZM19.76,13.27l-.2-.06c-.04.15.17.24.2.06ZM22.17,13.47c0-.1-.06-.16-.13-.22l-.06.08c.05.06.08.16.18.14h0ZM15.47,13.52c.02-.07.11-.13.06-.2l-.07-.05-.15.18c.03.06.1.09.16.07ZM21.76,13.42c-.02.11.05.26.18.17.04-.06-.04-.17-.09-.19l-.09.03h0ZM15.02,13.47c-.05.03-.19.33-.09.33.03,0,.3-.4.09-.33ZM17.13,13.55c-.05-.05-.28.17-.15.2.05,0,.18-.13.15-.2ZM22.17,13.55c-.03.06.08.28.13.28.1,0,0-.34-.13-.28ZM15.11,13.89c.1.13.32-.23.22-.29-.02-.02-.09-.02-.11,0-.01,0-.14.27-.11.3h0ZM22.12,13.89l-.08-.21c-.19-.03-.14.13-.06.23,0,0,.14-.02.14-.02ZM20.3,13.75c-.03.12.19.32.17.13,0-.07-.1-.13-.17-.13ZM16.08,14.05c.07-.09.05-.26-.09-.27-.24-.03-.23.26-.06.34.04,0,.12-.04.15-.07ZM21.44,13.87s-.11-.05-.13-.05c-.08,0-.16.07-.22.13-.06.07.02.05.05.09.02.02,0,.06.04.08.06.03.16,0,.23,0,.03-.02.05-.21.03-.24h0ZM18.88,13.83c-.13-.02-.38,0-.53,0-.01,0-.05.05-.04.07l.11.94.37-.02.16-.96s-.05-.03-.07-.03ZM14.75,14.14c.14.06.18-.28.1-.28-.07.08-.11.18-.1.28ZM18.08,14.9c-.03-.28.06-.61.03-.88,0-.04,0-.07-.04-.1-.46.18-.83.55-.99,1.02l.07.04.94-.09h-.01ZM19.15,14.02v.88c.3-.03.64.07.94.03.04,0,.05.02.04-.04-.18-.45-.51-.76-.94-.96-.07-.03-.04.08-.04.1h0ZM22.51,14.25c.02-.11-.05-.2-.07-.31l-.13-.03c0,.06.11.42.2.34ZM15.13,14.22s.03-.13.05-.18c-.13-.2-.3.17-.14.21.02,0,.07-.01.09-.03ZM22.29,14.31c-.02-.08-.08-.39-.23-.3-.06.04.05.27.07.3.05.05.1,0,.15,0h.01ZM21.81,14.24v2.42c.08.01.05-.02.06-.06.12-.29.22-.87.22-1.19,0-.39-.14-.84-.23-1.22,0,0-.05.03-.06.04h.01ZM14.69,14.23c0,.09-.13.22.01.25.05-.01.13-.27-.01-.25ZM15.39,14.25c-.06,0-.05,0-.06.03-.02.05-.05.18-.07.24-.13.5-.14,1.05-.06,1.55.02.12.08.39.13.49.02.04,0,.04.06.04v-2.35ZM15.02,14.53l.06-.15-.12-.07c-.12.07-.1.26.06.22ZM22.5,14.34c-.08.02.02.29.08.28s.04-.31-.08-.28ZM22.17,14.42c0,.06.01.23.07.25.2.07.14-.33-.07-.25ZM14.69,14.56c-.08-.08-.19.24-.1.28.01,0,.07.01.07-.02,0,0,.03-.26.03-.26ZM20.94,14.76c0-.1-.02-.22-.14-.2l.03.19h.11,0ZM15,14.65c-.31-.12-.15.38-.05.24l.05-.24ZM22.65,14.7c-.14-.09-.13.23-.04.25.11.03.07-.24.04-.25ZM22.28,14.79c-.07.02-.01.12,0,.17l.13.02c.07-.12.01-.22-.12-.18h0ZM21.22,14.84l-.06.04c.14.34.07.72.04,1.08l.31-.55-.3-.57h0ZM14.57,14.93c-.07.01-.06.42,0,.42.1-.04.1-.44,0-.42ZM16.04,14.93c-.07-.02-.05.02-.07.05-.1.15-.18.31-.26.47l.28.54c.05,0,.06,0,.06-.04,0-.11-.05-.24-.06-.36-.01-.22,0-.44.06-.66h-.01ZM14.82,14.99s-.13.35,0,.36c.17.01.14-.24.11-.34,0,0-.11-.02-.11-.02ZM18.37,15.1c-.14.11-.15.62.06.66.11.02.43.03.48-.08.03-.07.03-.45-.01-.52-.07-.13-.43-.13-.53-.06ZM22.29,15.1c-.03.08,0,.28.12.25.08-.02.08-.4-.12-.25ZM22.59,15.07c-.05.3.14.42.11.05l-.02-.03h-.09v-.02ZM17.02,15.71c.06.08.84-.11.98-.11.09-.03.09-.12.07-.2l-.02-.03c-.07,0-.13-.05-.19-.06-.1-.02-.76-.16-.8-.14-.11.04-.08.45-.04.55h0ZM16.29,15.21c-.15-.1-.13.21-.07.22.09.02.08-.17.07-.22ZM20.21,15.7v-.48s-.07-.05-.1-.04l-.93.15c-.11.35.12.27.34.31.21.04.41.09.62.11.02,0,.06-.02.07-.04h0ZM14.52,15.71c.18.06.08-.28.04-.28-.11.06-.02.18-.04.28ZM14.79,15.43c-.07.02-.08.28.02.28.19,0,.15-.33-.02-.28ZM22.29,15.77c.23.16.19-.31.12-.33l-.09.05-.03.29h0ZM22.59,15.82c.12.11.18-.37.07-.39-.11-.03-.06.33-.07.39ZM20.98,15.49c-.06.01-.07.19,0,.22.08-.04.1-.24,0-.22ZM16.22,15.71c-.11.03.03.13.04.16.01.06-.07.14.05.2.1-.07,0-.15,0-.22,0-.04.06-.18-.08-.15h-.01ZM14.94,15.8h-.17l.03.19h.14v-.19ZM14.63,15.82c-.19-.03-.13.34.03.21,0,0-.03-.21-.03-.21ZM22.4,16.13c.1-.27-.15-.37-.16-.04.01.05.12.05.16.04ZM18.08,16.92l-.05-.97-.9.02c.02.26.25.55.45.71.07.05.44.3.5.24ZM20.13,15.94h-.94l-.04.04v.84s-.04.04-.02.07l.07.05c.42-.19.8-.54.92-1h.01ZM22.68,15.94h-.11c-.11.38.13.35.11,0ZM20.8,16.33c.11,0,.12-.15.14-.24,0-.02.06-.08-.01-.1-.1-.02-.04.12-.05.14-.03.05-.11.03-.07.2h-.01ZM18.75,16.05c-.07,0-.3-.04-.33.04.02.22-.05.43-.06.64,0,.07-.02.27.05.29.07,0,.44.03.46-.04,0,0-.12-.93-.12-.93ZM14.88,16.11c-.09.03-.04.3.11.25.08-.03.04-.3-.11-.25ZM16.33,16.1c-.1.02,0,.2.06.22.08-.03.01-.24-.06-.22ZM14.69,16.16h-.11c0,.36.2.38.11,0ZM22.21,16.25c-.05.09-.05.19.06.22l.1-.18s-.12-.05-.16-.04ZM22.59,16.3c-.13-.06-.17.25-.07.25.07,0,.08-.2.07-.25ZM20.83,16.36c-.06-.06-.23.18-.13.22.1.04.12-.16.13-.22ZM15.14,16.78c0-.1-.05-.43-.2-.32-.08.05.04.22.04.3l.15.03h.01ZM14.77,16.52c-.21-.06-.02.38.04.36.11-.02-.05-.3-.04-.36ZM22.06,16.78l.14.02.07-.19-.11-.08s-.12.22-.1.25ZM16.21,16.9c0-.15-.12-.27-.27-.27s-.27.12-.27.27.12.27.27.27.27-.12.27-.27ZM22.44,16.64s-.15.26-.06.28.18-.31.06-.28ZM21.53,16.94c0-.15-.12-.27-.27-.27s-.27.12-.27.27.12.27.27.27.27-.12.27-.27ZM15.06,16.89c.04.14.1.36.24.17l-.1-.18-.14.02h0ZM22.02,16.89c-.06.02-.2.3-.06.33.07.01.16-.21.18-.27l-.05-.07h-.08,0ZM16.91,17.11c.07-.06-.08-.21-.13-.2-.12.03.07.24.13.2ZM14.94,16.97s-.12,0-.11.07c.04.06.06.21.15.18s0-.13-.03-.17c-.01-.03-.01-.08-.01-.08ZM22.37,17c-.13-.05-.23.3-.2.34.03,0,.06.02.09-.02.03-.03.14-.29.11-.32ZM20.3,17.14c-.11,0-.23.05-.22.17.07.05.26-.13.22-.17ZM15.26,17.2c-.07.07.04.23.09.22l.09-.11-.07-.13s-.08,0-.1.02h-.01ZM21.95,17.31s-.11-.07-.14-.05l-.1.21.13.04s.14-.16.11-.21h0ZM15.17,17.53c.02-.06-.07-.24-.13-.22-.09.02.02.27.13.22ZM17.17,17.95h.53s.05-.05.04-.06c-.34-.08-.63-.29-.9-.5-.03.03.26.54.32.56h0ZM19.53,17.95c.12.03.36-.02.5,0,.04,0,.35-.5.32-.53-.27.19-.53.41-.87.48,0,0,.03.05.04.06h.01ZM22.08,17.42s-.18.22-.09.25c.1.03.27-.31.09-.25ZM15.53,17.45s-.12.02-.13.07c.04.14.12.27.25.1l-.11-.18h-.01ZM21.63,17.54l-.12.18.14.09.12-.18-.14-.09ZM18.14,18.82l-2.21-1.23s.18.25.21.27c.52.54,1.22.86,1.94,1.01,0,0,.06-.05.06-.05ZM21.3,17.59s-.27.12-.31.15c-.58.32-1.23.67-1.78,1.02-.04.03-.13.06-.12.12.8-.15,1.63-.55,2.16-1.19.03-.03.07-.05.06-.1h0ZM15.39,17.87s-.08-.27-.18-.25c-.05.01-.03.04-.02.07.02.04.14.24.2.18ZM19.29,17.76s.22-.06.22-.1c0-.08-.28-.04-.22.1ZM15.69,17.73c-.16.03.02.25.08.31.07.06.13.01.15-.07-.05-.05-.17-.25-.23-.24ZM18.56,17.76h-.21c-.07.14.12.12.21.11v-.11ZM21.95,17.73s-.27.18-.15.22c.08.03.19-.19.15-.22ZM21.34,18.06c.08.06.23-.12.22-.18-.03-.2-.36.08-.22.18ZM15.59,18.23l.13-.04c-.08-.04-.21-.29-.29-.27-.14.04.16.23.16.3h0ZM21.53,18.26s.31-.22.18-.25c-.09-.02-.26.19-.18.25ZM16.17,18.18c-.12-.04-.17-.21-.25-.02.06.15.25.24.25.02ZM21.23,18.25s.09-.03.07-.11c-.06-.19-.51.19-.24.26.07-.04.12-.1.17-.15ZM18.88,18.48c0-.15-.12-.27-.27-.27s-.27.12-.27.27.12.27.27.27.27-.12.27-.27ZM15.98,18.51s-.15-.26-.22-.22c-.06.06.14.27.22.22ZM21.5,18.32c-.07-.08-.38.16-.34.28.05.06.3-.23.34-.28ZM16.25,18.32s-.05.07-.07.1c.08.09.24.16.24-.01-.04-.05-.09-.11-.17-.08h0ZM20.94,18.51s-.04-.14-.09-.14l-.16.1.07.14.18-.11h0ZM16.53,18.49l-.07.12.17.13.1-.1-.21-.15h0ZM16.04,18.54s.15.29.22.15c-.04-.08-.12-.16-.22-.15ZM20.63,18.6c-.06-.09-.31.06-.17.18.06.04.22-.11.17-.18ZM21.08,18.6s-.26.13-.25.18c.01.13.36-.09.25-.18ZM16.77,18.82c.07.02.29.2.33.07.04-.13-.28-.25-.32-.18v.11h-.01ZM16.56,18.86s-.22-.16-.25-.07c-.03.13.35.24.25.07ZM20.35,18.88c.1-.16-.22-.19-.25-.01,0,.13.23.04.25.01ZM20.77,18.82s-.2.09-.22.13l.07.06.15-.08s0-.11,0-.11ZM17.19,19.02l.21.06c.18-.17-.26-.31-.21-.06ZM19.68,18.96c0,.23.25.11.36.01l-.1-.1-.27.09h.01ZM16.63,18.96c-.06.05.25.2.28.21.09.03.13-.07.04-.12-.05-.03-.27-.13-.32-.09ZM17.74,19.02s-.13-.07-.16-.05l-.05.15.2.02s.04-.1.02-.12h-.01ZM20.4,19s-.16.08-.18.11l.03.09.24-.13c0-.06-.04-.08-.09-.06h0ZM19.6,19.16v-.09c-.04-.1-.28-.01-.28.02l.07.1s.21-.03.21-.03ZM18.11,19.21c.08-.12-.16-.19-.25-.16v.16c.06.01.22.05.25,0ZM19.14,19.08c-.07,0-.19.06-.11.15.05.03.21.03.22-.03l-.06-.11s-.04-.01-.06,0h.01ZM18.53,19.3c.17-.26-.31-.23-.34-.15-.05.16.26.12.34.15ZM18.65,19.13c-.08.17.25.18.28.09l-.04-.12-.23.03h-.01ZM17.08,19.24c.35.19.35-.09,0-.08v.08ZM20.13,19.16s-.38.07-.36.15c.01.06.07.03.11.02.05-.01.34-.1.26-.18h-.01ZM17.69,19.41c.05-.13-.23-.18-.25-.1s.2.11.25.1ZM19.37,19.44s.31,0,.31-.1c-.02-.08-.24,0-.29.01,0,0-.02.09-.02.09ZM17.82,19.33c-.18.14.22.2.24.12-.02-.09-.17-.09-.24-.12ZM19.26,19.49c.09-.17-.26-.14-.18,0h.18ZM18.56,19.52c.06-.17-.41-.13-.42-.07-.02.12.35.06.42.07ZM18.72,19.42s-.04.03-.06.05c-.04.08.28.08.29.01.02-.09-.18-.08-.23-.06Z"/>
    <path class="st0" d="M9.2,20.62h18.79l.04-.05c-.08-.64-.05-1.17.74-1.04,1.08.18,2.21.6,3.3.79.18.14.71.39.77.6.15.51.15,1.2.27,1.72-.47.99-.3,2.04,0,3.05-.13.57-.11,1.27-.26,1.82-.07.27-.59.44-.81.59-1.1.18-2.24.61-3.33.79-.71.12-.77-.46-.68-1.01l-.04-.04H9.2v.69s-.09.2-.11.22c-.15.18-.36.18-.57.15-.83-.14-1.77-.43-2.59-.63-.54-.13-.85-.14-1.33-.49-.11-.08-.22-.17-.25-.31-.02-.56-.21-1.18-.23-1.73,0-.23.08-.34.13-.54.15-.64.25-1.51.02-2.13-.05-.13-.13-.19-.15-.35-.02-.25.17-1.45.24-1.73.02-.07.1-.18.15-.24.21-.2.59-.41.86-.48,1.07-.3,2.22-.48,3.3-.76.18-.05.52.22.52.38v.74h0ZM8.83,20.95v-1.02s-.11-.12-.15-.1c-.86.22-1.72.43-2.59.64-.3.07-.67.1-.93.25-.08.04-.42.29-.44.34-.08.32-.1.65-.15.97-.02.18-.11.44-.1.62,0,.09.08.15.1.23.21.62.24,1.26.14,1.9-.04.27-.2.62-.22.87s.06.45.08.68c.04.37.07.76.15,1.12.22.11.42.29.66.36,1.04.19,2.07.54,3.1.73.12.02.25.07.34-.03v-.95l.08-.06h19.3l.15.02v.97c0,.14.26.08.34.06.66-.12,1.35-.33,2-.49.53-.13,1.28-.2,1.71-.56.17-.14.09-.21.12-.39.07-.48.13-.96.22-1.43-.35-.96-.47-2.12,0-3.05-.08-.42-.14-.84-.22-1.27-.02-.12.03-.23-.08-.34-.06-.07-.5-.35-.6-.38-.8-.25-1.81-.42-2.64-.61-.2-.05-.5-.17-.69-.18-.05,0-.18.06-.18.09v1.01l-.04.04H8.9s-.04-.04-.07-.03h0Z"/>
    <path class="st0" d="M11.81,18.19c-.07.05-.21.24-.32.17-.03-.05-.13-.17-.13-.22,0-.07.2-.5.19-.52l-.41.25-.16-.26.77-.54c.32.21.11.44.01.71.03.15.29-.19.38-.18.05,0,.16.16.15.21,0,.08-.41.33-.49.39h.01Z"/>
    <path class="st0" d="M18,3.52l.1.98s-.24.04-.3.01c-.06-.03-.34-.43-.39-.38l.05.45c-.08.01-.19.06-.27,0l-.14-.93c.08-.05.21-.08.3-.04.06.03.35.43.39.38-.01-.29-.19-.52.25-.47h.01Z"/>
    <path class="st0" d="M26.3,16.85s-.09-.21-.12-.23c-.16.03-.32.08-.48.02l.17-.29c.11-.02.24-.01.35-.04.28-.07-.18-.16-.23-.27l.16-.24s.74.31.8.36c.03.02.04.03.05.07,0,.07-.26.58-.32.63-.09.08-.28.07-.37,0h0ZM26.54,16.36c-.07.03-.11.2-.03.22.1.03.22-.19.11-.22h-.08Z"/>
    <path class="st0" d="M10.24,14.14l.39-.03.03.24-.03.06c-.14.02-.85.19-.93.14-.05-.22-.23-.72.01-.86.26-.15.33.08.42.06l.34-.28c.07.01.11.26.1.32-.02.07-.42.27-.33.36h0ZM9.84,14.2c.32.06.1-.32,0-.22v.22Z"/>
    <path class="st0" d="M25.29,18.32l-.14.2c.02.11.43.19.01.44l-.72-.63c.2-.36.25-.14.49-.01l.18-.21-.25-.26.18-.21.74.63-.2.21c-.07,0-.19-.2-.29-.17h0Z"/>
    <path class="st0" d="M10.54,11.73c-.17.07-.37-.02-.55-.05-.14-.02-.31,0-.45-.09.02-.18.06-.58.19-.71.18-.18.65-.11.8.09s0,.52,0,.75h.01ZM10.31,11.18c-.08-.09-.36-.12-.44,0-.14.22.31.18.43.21.06-.05.06-.16,0-.22h0Z"/>
    <path class="st0" d="M10.56,8.63c.29-.05.69.12.68.46,0,.1-.16.58-.25.6-.12.03-.65-.29-.81-.33l-.06-.05c-.02-.06.19-.47.24-.54.06-.07.11-.12.2-.14ZM10.59,8.93c-.06.02-.13.14-.09.19.03.04.36.19.42.14.21-.16-.17-.38-.33-.33Z"/>
    <path class="st0" d="M26.44,10.17l.88-.23s.09.21.11.26c.02.06.07.27.07.32.03.41-.67.63-.91.32-.07-.09-.24-.6-.15-.67ZM27.13,10.34s-.36.1-.39.12c-.13.12.15.31.39.14.11-.08.13-.28,0-.26Z"/>
    <path class="st0" d="M12.78,6.8c0,.29-.24.53-.53.53s-.53-.24-.53-.53.24-.53.53-.53.53.24.53.53ZM12.19,6.55c-.07,0-.2.14-.18.23.03.15.34.4.47.17.1-.17-.16-.41-.29-.4Z"/>
    <path class="st0" d="M15.34,4.76c-.03.05.03.14.09.14.05,0,.36-.18.42-.17l.09.18-.18.12-.57.22-.39-.9.74-.32c.25.25-.09.28-.28.36-.14.06-.03.15.05.14.16-.02.34-.3.43.02,0,.08-.39.17-.41.21h0Z"/>
    <path class="st0" d="M22.59,4.4s.03.19-.04.21c-.14.05-.43-.23-.49-.09-.03.08.01.06.04.07.11.06.23.1.34.16.04.06-.04.13-.07.18l-.38-.14c-.29.13.23.26.35.33,0,.11-.04.24-.17.21-.19-.05-.46-.25-.67-.3-.02-.03,0-.08,0-.11.05-.16.23-.55.31-.7.02-.03.06-.11.08-.11.19.09.38.17.57.27.03.02.08,0,.11.02h.02Z"/>
    <path class="st0" d="M12.78,18.24c.1.09.25.3.22.44-.03.15-.38.53-.51.62-.1.07-.21-.09-.26-.18.06-.15.49-.41.47-.56-.01-.06-.09-.13-.15-.13-.17,0-.42.41-.54.44-.07.02-.23-.16-.22-.22,0-.03.46-.46.5-.48.17-.08.35-.05.49.07Z"/>
    <path class="st0" d="M9.79,14.88s.16-.05.2,0c.07.07.08.58.26.35l-.12-.38c.28-.3.25.3.34.33.31.02-.02-.37,0-.51l.2-.06c.06.03.26.69.25.75,0,.03-.04.06-.07.07-.17,0-.71.27-.83.23-.09-.03-.19-.59-.26-.7,0-.03,0-.06.02-.08h0Z"/>
    <path class="st0" d="M27.51,11.95l-.07-.42-.09-.05c-.11.03.06.38.01.47h-.22l-.06-.4-.14-.02c-.06.17.17.51-.07.53-.2.02-.13-.15-.15-.27-.01-.09-.09-.5-.06-.53.02-.02.04-.03.07-.04.11-.02.3-.04.42-.06.14-.02.32-.03.46-.02.03.02.12.68.11.73-.02.09-.15.1-.22.06v.02Z"/>
    <path class="st0" d="M10.39,13.32s-.14.09-.15.09c-.08.01-.13-.21-.12-.26.02-.06.33-.2.07-.33-.05,0-.05.04-.07.07-.06.15-.07.44-.27.48-.44.1-.54-.78-.09-.84l.07.22c.13-.19.15-.29.42-.25.3.05.34.63.15.8v.02ZM9.81,12.8c-.08.07-.19.19-.07.28.1-.07.07-.18.07-.28Z"/>
    <path class="st0" d="M23.4,4.85c.11.09.18.28.05.38-.21-.02-.2-.19-.28-.28-.02-.03-.11-.08-.13-.01-.03.13.43.32.27.64-.21.43-1.06-.07-.76-.45.03,0,.19.09.21.12.06.1,0,.25.18.24.23-.02-.12-.31-.15-.35-.17-.25.03-.53.32-.46.04.01.25.14.29.17Z"/>
    <path class="st0" d="M25.84,8.76s-.21-.2-.22-.24c-.01-.06.08-.11.08-.16,0-.03-.12-.23-.16-.23-.05-.01-.1.05-.16,0-.04-.03-.12-.18-.12-.24.02-.06.86-.19.98-.23l.19.3s-.59.8-.59.8ZM25.98,7.98s-.15.03-.16.07l.07.12.15-.15s-.03-.04-.06-.04Z"/>
    <path class="st0" d="M26.21,15.66s.04-.24.07-.28c.04-.05.11-.02.15-.04s.1-.25.09-.3c0-.04-.09,0-.09-.15,0-.04.07-.24.1-.24.11.11.77.57.79.66.01.04-.05.26-.09.29-.08.06-.2,0-.28.05h-.74ZM26.91,15.35c-.04-.14-.23-.21-.2,0h.2Z"/>
    <path class="st0" d="M10.66,10.49s.05.02.06.04c.03.05-.02.3-.08.3-.04,0-.53-.37-.6-.43-.24-.19-.28-.17-.13-.49l1-.1c.05.04.01.22-.02.27-.05.09-.2.01-.25.25-.02.07-.02.1.02.16ZM10.43,10.17c-.08,0-.19-.07-.19.05l.2.06v-.11h-.01Z"/>
    <path class="st0" d="M20.94,4.81c-.09,0-.22,0-.29-.06-.1-.07-.01-.18-.23-.21s-.18.1-.22.11c-.04,0-.28-.03-.29-.07,0-.04.01-.06.03-.08.04-.08.47-.73.51-.75.07-.04.32,0,.35.07l.15,1.01v-.02ZM20.58,4.31c0-.08.03-.17-.04-.22-.06.06-.11.13-.1.22h.14Z"/>
    <path class="st0" d="M24.75,7.16c-.15.05-.16-.09-.26-.17l.04-.18c-.05-.05-.14-.18-.21-.19-.05,0-.1.03-.14.03-.09,0-.23-.14-.21-.23l.91-.41c.08.04.24.18.24.26-.01.21-.35.64-.37.88h0ZM24.75,6.38s-.25.08-.2.17l.14.03.06-.19h0Z"/>
    <path class="st0" d="M19.78,3.67c.05.06.13.18.04.23-.23.11-.21,0-.31-.08-.27-.19-.4.42-.17.48.2.06.18-.12.27-.14.07-.01.25.05.23.14-.08.31-.62.32-.82.11-.15-.16-.15-.4-.09-.59.11-.34.62-.41.85-.15Z"/>
    <path class="st0" d="M26.88,14.61l-.06.03c-.6-.42,0-1.25.63-.82.3.21.18.87-.22.87-.04-.03-.04-.2-.02-.25.02-.07.21-.08.16-.25-.05-.16-.48-.24-.52-.02-.03.16.13.17.13.24l-.09.2h0Z"/>
    <path class="st0" d="M16.37,3.78c.2-.02.36,0,.45.2l-.19.12c-.06.02-.12-.08-.22-.08-.28,0-.16.65.16.49l.1-.21h.22c.13.14-.06.37-.2.44-.75.36-1.09-.87-.32-.97h0Z"/>
    <path class="st0" d="M25.38,17.64c-.22-.22,0-.69.27-.76.33-.09.75.2.7.56-.03.23-.37.61-.61.4.03-.25.15-.18.26-.27.22-.16-.22-.54-.4-.34-.1.12,0,.17.02.24,0,.08-.18.24-.25.17h0Z"/>
    <path class="st0" d="M11.64,7.89l.22.14c.02.09-.09.27-.18.26-.12-.01-.62-.45-.77-.52,0-.04.25-.4.3-.46.25-.29.63-.06.57.26-.02.11-.16.2-.13.32h0ZM11.35,7.51c-.15.05,0,.21.07.19s.13-.25-.07-.19Z"/>
    <path class="st0" d="M10.95,16.45c-.06.06-.36.42-.42.41-.18-.24-.16-.28.04-.46.04-.04.31-.21.25-.27l-.6.06c-.04-.07-.15-.2-.09-.28.04-.05.58-.05.67-.05.32-.01.35-.11.45.28-.03.1-.24.24-.32.32h.02Z"/>
    <path class="st0" d="M24.55,5.76l-.15.14c-.07.01-.12-.19-.26-.12-.07.03-.35.49-.38.49-.09.02-.3-.12-.23-.24.06-.12.33-.37.36-.45.04-.12-.13-.14-.19-.22,0-.09.11-.25.21-.18.21.14.41.35.63.49l.02.09h-.01Z"/>
    <path class="st0" d="M25.48,6.58l.48.62c.07.09,0,.16-.09.2-.15.06-.14-.11-.26-.18l-.49.4c-.1.08-.25-.17-.22-.25l.5-.39c.03-.1-.16-.2-.13-.28.03-.06.16-.16.22-.13h-.01Z"/>
    <path class="st0" d="M14.15,5.01c-.13-.03-.15.13-.28.1-.06-.02-.13-.16-.1-.21.02-.04.69-.41.74-.42.09-.01.16.12.14.2-.02.06-.23.1-.22.2,0,.08.27.41.3.52.03.13-.2.24-.28.19l-.31-.57h.01Z"/>
    <path class="st0" d="M27.72,12.57h-.7l-.03.47-.25-.04c.02-.2-.03-.45,0-.64,0-.05.01-.09.06-.11h.88c.09.02.03.25.05.32h0Z"/>
    <path class="st0" d="M26.65,8.49c.11-.06.22.19.2.26l-.6.3c-.06.08.14.34.16.43l-.23.1-.32-.68.8-.41h-.01Z"/>
    <path class="st0" d="M13.68,6.18c-.19.1-.34.31-.51.43-.03.02-.04.04-.08.02-.05-.01-.6-.71-.59-.76.03-.06.17-.18.22-.16l.46.5c.08.02.25-.23.36-.25.07,0,.18.16.15.22h0Z"/>
    <path class="st0" d="M24.21,18.52s.07,0,.11.02c.05.03.59.62.6.66l-.21.21c-.07.01-.59-.62-.68-.71.05-.04.13-.16.19-.18h-.01Z"/>
    <path class="st0" d="M10.49,12.32l-.93-.06c-.1-.03-.05-.22-.02-.29.03-.02.47-.02.55-.01.07,0,.31.02.36.03.14.04.02.23.05.33h0Z"/>
    <path class="st0" d="M13.48,5.1h.07c.09.02.44.65.54.75l-.23.2-.57-.77v-.06s.17-.1.19-.11h0Z"/>
    <path class="st0" d="M11.63,16.88l-.8.45c-.07,0-.21-.26-.12-.32.21-.04.56-.37.72-.4.13-.03.23.16.2.27Z"/>
    <path class="st0" d="M18.33,3.52h.31c-.04.14.08.93,0,.98-.1,0-.23.04-.3-.04v-.94h-.01Z"/>
    <path class="st0" d="M15.25,3.83c0,.07.01.15-.02.22-.11.24-.29-.24.02-.22Z"/>
    <polygon class="st0" points="24.33 21.99 24.33 23.15 21.25 23.21 21.25 23.7 24.33 23.7 24.33 24.55 24.29 24.6 21.25 24.6 21.25 25.06 21.29 25.1 24.33 25.1 24.33 26.28 19.48 26.28 19.48 22.03 19.53 21.99 24.33 21.99"/>
    <path class="st0" d="M8.55,25.16h1.86l.04-.04v-3.08l.04-.04h1.75v3.43c0,.38-.54.87-.92.9-1.15-.06-2.41.1-3.55,0-.39-.03-.75-.26-.92-.62-.03-.06-.13-.36-.13-.41v-3.28l.04-.04h1.65s.13-.04.13.04v3.14Z"/>
    <path class="st0" d="M17.68,21.93c1.06.11,1.12,1.09,1.05,1.95-.04.44-.46,1.02-.94,1.02h-2.73s-.03.06-.03.07v1.29l-.04.04h-1.75v-4.33l.04-.04s4.4,0,4.4,0ZM16.85,23.17h-1.82v.76h1.82v-.76Z"/>
    <path class="st0" d="M26.39,26.25c-.39-.05-1.01-.47-1.07-.89.04-.77-.08-1.65,0-2.4.04-.45.53-.77.92-.9,1.36-.05,2.73-.05,4.09-.03.05,0,.24-.05.24.04v1.12l-.04.04h-3.39l-.04.04v1.71l.07.07h3.36l.04.04v1.12l-.04.04h-4.14Z"/>
  </g>
</svg>